<svg width="16" height="17" fill="none" xmlns="http://www.w3.org/2000/svg"><g filter="url(#a)"><path d="M7.9 8.22c-.71 0-1.352-.165-1.924-.494a3.615 3.615 0 0 1-1.352-1.352A3.786 3.786 0 0 1 4.13 4.45c0-.72.165-1.36.494-1.924.33-.572.78-1.023 1.352-1.352A3.786 3.786 0 0 1 7.9.68c.72 0 1.36.165 1.924.494.572.33 1.023.78 1.352 1.352.33.563.494 1.205.494 1.924 0 .71-.165 1.352-.494 1.924a3.615 3.615 0 0 1-1.352 1.352c-.563.33-1.205.494-1.924.494zm0-.585c.607 0 1.144-.139 1.612-.416a3.078 3.078 0 0 0 1.131-1.131 3.242 3.242 0 0 0 .416-1.638c0-.615-.139-1.161-.416-1.638a3.078 3.078 0 0 0-1.131-1.131c-.468-.277-1.005-.416-1.612-.416-.598 0-1.135.139-1.612.416a3.078 3.078 0 0 0-1.131 1.131c-.277.477-.416 1.023-.416 1.638 0 .607.139 1.153.416 1.638.277.477.654.854 1.131 1.131a3.146 3.146 0 0 0 1.612.416zm-.013-.845c-.58 0-1.07-.204-1.469-.611-.399-.407-.598-.984-.598-1.729 0-.503.095-.927.286-1.274.19-.347.442-.611.754-.793a2.002 2.002 0 0 1 1.027-.273c.546 0 .975.134 1.287.403.32.269.524.628.611 1.079h-.65a1.325 1.325 0 0 0-.455-.65c-.2-.156-.464-.234-.793-.234-.373 0-.702.143-.988.429-.286.277-.429.715-.429 1.313s.143 1.04.429 1.326c.286.286.615.429.988.429.355 0 .637-.082.845-.247.217-.165.36-.381.429-.65h.624c-.104.468-.32.832-.65 1.092-.32.26-.737.39-1.248.39z" fill="#fff"/></g><defs><filter id="a" x=".13" y=".68" width="15.54" height="15.54" filterUnits="userSpaceOnUse" color-interpolation-filters="sRGB"><feFlood flood-opacity="0" result="BackgroundImageFix"/><feColorMatrix in="SourceAlpha" values="0 0 0 0 0 0 0 0 0 0 0 0 0 0 0 0 0 0 127 0" result="hardAlpha"/><feOffset dy="4"/><feGaussianBlur stdDeviation="2"/><feComposite in2="hardAlpha" operator="out"/><feColorMatrix values="0 0 0 0 0 0 0 0 0 0 0 0 0 0 0 0 0 0 0.25 0"/><feBlend in2="BackgroundImageFix" result="effect1_dropShadow_1_832"/><feBlend in="SourceGraphic" in2="effect1_dropShadow_1_832" result="shape"/></filter></defs></svg>